<?xml version="1.0" standalone="no"?>
<!DOCTYPE svg PUBLIC "-//W3C//DTD SVG 20010904//EN"
 "http://www.w3.org/TR/2001/REC-SVG-20010904/DTD/svg10.dtd">
<svg version="1.0" xmlns="http://www.w3.org/2000/svg"
 width="202.000000pt" height="56.000000pt" viewBox="0 0 202.000000 56.000000"
 preserveAspectRatio="xMidYMid meet">

<g transform="translate(0.000000,56.000000) scale(0.100000,-0.100000)"
fill="#000000" stroke="none">
<path d="M823 497 c-102 -8 -113 -11 -113 -29 0 -18 7 -19 113 -18 106 2 112
1 110 -17 -2 -18 7 -21 112 -29 111 -9 114 -8 124 13 5 11 7 24 4 27 -4 3 -57
6 -119 6 l-113 0 6 30 c3 17 2 29 -3 28 -5 0 -60 -5 -121 -11z"/>
<path d="M1201 478 c-6 -17 -10 -32 -9 -33 2 -1 61 -14 131 -30 137 -31 151
-29 159 20 3 17 -8 22 -98 41 -178 37 -171 37 -183 2z"/>
<path d="M375 439 c-87 -12 -109 -19 -99 -29 14 -14 204 11 204 27 0 14 -16
15 -105 2z"/>
<path d="M558 431 c-55 -6 -77 -15 -65 -27 3 -3 51 -3 106 1 75 6 101 11 101
21 0 15 -37 16 -142 5z"/>
<path d="M676 381 l-28 -30 107 -3 c115 -3 124 -1 149 37 l16 25 -108 0 c-107
0 -109 0 -136 -29z"/>
<path d="M173 390 c-40 -3 -76 -10 -80 -15 -5 -4 24 -5 62 -1 39 3 80 6 93 6
12 0 22 5 22 10 0 6 -6 9 -12 9 -7 -1 -46 -5 -85 -9z"/>
<path d="M368 386 c-56 -6 -103 -17 -110 -25 -11 -11 2 -13 86 -8 82 5 103 9
120 26 11 12 16 20 11 20 -6 -1 -54 -7 -107 -13z"/>
<path d="M1140 360 l-21 -30 85 0 85 0 -9 -30 c-6 -22 -5 -30 4 -30 8 0 16 14
20 30 5 28 9 30 48 31 37 1 26 5 -67 30 -60 16 -113 29 -117 29 -4 0 -16 -13
-28 -30z"/>
<path d="M1451 361 c-15 -28 -14 -31 14 -31 16 0 23 -4 19 -13 -3 -8 9 -20 29
-29 32 -15 36 -15 65 4 18 11 32 22 32 25 0 5 -92 46 -127 57 -16 5 -25 2 -32
-13z"/>
<path d="M315 243 c-9 -43 -25 -115 -35 -160 l-18 -83 224 0 c187 0 224 2 224
14 0 8 3 21 6 30 5 14 -11 16 -145 16 -83 0 -151 3 -151 8 0 6 9 44 35 159 5
22 9 23 158 25 l152 3 3 33 3 32 -219 0 -220 0 -17 -77z"/>
<path d="M1033 310 c-223 -6 -214 0 -248 -153 -14 -59 -22 -113 -19 -121 11
-29 55 -36 244 -36 157 0 190 2 190 14 0 8 3 21 6 30 5 14 -11 16 -139 16 -80
0 -148 4 -151 9 -7 11 23 152 36 168 7 9 56 13 157 15 l146 3 3 30 c2 25 -1
30 -20 30 -13 0 -105 -2 -205 -5z"/>
<path d="M1324 305 c-8 -20 -64 -278 -64 -291 0 -11 17 -14 69 -14 l69 0 7 32
c4 18 11 50 16 71 l10 38 65 -70 66 -71 86 0 c48 0 83 4 77 8 -5 4 -41 40 -78
78 l-69 71 106 74 c58 41 105 76 106 79 0 3 -35 5 -79 4 l-78 -2 -93 -67 c-50
-36 -94 -65 -96 -62 -2 2 1 28 7 58 6 30 12 59 13 64 0 6 -28 10 -68 10 -38 0
-70 -4 -72 -10z"/>
<path d="M1785 283 c-11 -8 -27 -18 -35 -23 -11 -6 -7 -15 21 -47 19 -21 61
-75 93 -120 33 -46 62 -83 65 -83 4 0 19 21 34 46 32 53 37 43 -68 154 -86 92
-86 92 -110 73z"/>
<path d="M1695 220 c-10 -11 -14 -20 -8 -20 5 0 18 9 28 20 10 11 14 20 8 20
-5 0 -18 -9 -28 -20z"/>
<path d="M480 186 c0 -8 -3 -21 -6 -30 -5 -14 11 -16 139 -16 142 0 145 0 151
23 3 12 6 25 6 30 0 4 -65 7 -145 7 -119 0 -145 -3 -145 -14z"/>
<path d="M1662 157 l-32 -33 63 -62 c51 -50 69 -62 95 -62 17 0 32 3 32 7 0
12 -89 149 -108 166 -17 16 -20 15 -50 -16z"/>
</g>
</svg>
